<mxfile host="app.diagrams.net" modified="2024-02-23T17:45:38.354Z" agent="Mozilla/5.0 (Windows NT 10.0; Win64; x64; rv:122.0) Gecko/20100101 Firefox/122.0" etag="uhufeyLLuqXY9ul4qpXC" version="23.1.5" type="github">
  <diagram name="Page-1" id="rbhh-LLPLzyjg0o7bcGs">
    <mxGraphModel dx="1034" dy="414" grid="1" gridSize="10" guides="1" tooltips="1" connect="1" arrows="1" fold="1" page="1" pageScale="1" pageWidth="850" pageHeight="1100" math="0" shadow="0">
      <root>
        <mxCell id="0" />
        <mxCell id="1" parent="0" />
      </root>
    </mxGraphModel>
  </diagram>
</mxfile>
